<svg width="500" height="810" viewBox="0 0 500 810" fill="none" xmlns="http://www.w3.org/2000/svg">
<path fill-rule="evenodd" clip-rule="evenodd" d="M493.405 321.621C492.304 321.593 500.749 437.024 495.523 469.772C493.034 485.364 492.806 533.969 493.147 542.688C493.755 558.197 500.169 616.205 499.997 617.61C499.637 620.541 498.643 700.541 498.362 703.48C497.714 710.27 499.388 716.87 498.969 723.677C497.972 739.902 494.805 756.998 497.756 778.758C498.59 784.905 499.131 790.198 499.18 795.205C499.158 799.438 495.896 802.948 491.676 803.28C465.887 805.433 464.057 802.647 441.72 802.662C392.627 802.695 325.422 813.68 262.462 808.656C187.363 802.663 83.7011 802.831 76.3183 802.543C54.6459 801.695 29.8146 813.093 13.2957 795.331C11.5212 793.423 9.54132 791.495 8.64577 789.048C-0.492583 764.082 5.40192 746.598 7.17641 719.057C8.76118 694.461 7.50463 660.142 9.01599 635.541C9.65027 625.22 7.11317 615.213 8.09597 604.918C8.52113 600.461 9.26758 596.041 9.81276 591.598C10.074 589.468 9.74029 585.954 12.2612 584.789C16.7972 582.693 21.9822 583.897 26.6021 584.793C29.9327 585.439 33.2805 586.05 36.54 586.992C53.5232 591.893 73.0796 601.004 91.6028 600.074C101.048 599.6 106.502 598.805 115.278 595.322C137.682 586.43 151.514 565.278 169.309 549.998C183.067 538.184 200.025 531.782 212.575 518.491C218.232 512.501 222.14 505.994 225.737 498.639C228.972 492.023 227.06 481.492 229.431 474.535C232.1 466.708 241.091 457.753 239.155 449.248C238.665 447.097 237.893 444.981 236.814 443.056C235.778 441.21 234.33 439.616 232.885 438.069C226.368 431.094 217.845 440.099 212.659 445.449C211.196 446.957 209.961 448.678 208.77 450.409C206.397 453.857 204.353 457.525 201.975 460.97C198.058 466.646 194.041 472.255 189.891 477.763C187.806 480.531 185.606 483.217 183.279 485.786C178.821 490.71 174.044 495.635 167.728 498.107C164.792 499.257 160.984 497.796 159.947 494.713C159.141 492.319 158.496 489.862 158.047 487.376C157.712 485.521 157.474 483.618 157.604 481.738C158.906 462.864 165.277 445.128 173.587 428.286C187.131 400.838 201.974 373.905 213.803 345.628C217.743 336.21 221.449 326.694 225.102 317.161C226.168 314.38 227.083 311.542 227.955 308.695C231.285 297.823 235.31 283.3 226.44 273.796C225.194 272.462 223.801 271.248 222.302 270.206C214.235 264.6 207.042 275.861 204.309 281.918C202.947 284.936 201.754 288.031 200.64 291.15C199.525 294.272 198.531 297.438 197.626 300.627C195.811 307.025 194.306 313.507 192.482 319.902C190.667 326.272 188.843 332.645 186.711 338.916C184.781 344.592 181.321 351.761 178.144 356.841C174.372 362.874 167.622 371.874 163.014 377.288C161.848 378.657 159.111 381.485 156.953 379.736C153.238 376.724 153.097 371.652 153.135 367.3C153.2 359.904 156.428 352.891 159.39 346.32C173.579 314.856 182.1 298.254 195.395 266.386C199.399 256.789 202.067 239.501 188.052 236.888C186.809 236.656 185.494 236.638 184.258 236.906C181.341 237.542 178.539 239.379 176.411 241.396C169.598 247.855 164.92 256.209 160.661 264.452C149.329 286.389 143.315 310.232 134.381 333.196C130.232 343.86 128.975 346.06 124.003 356.37C123.202 358.031 119.664 362.325 116.49 360.351C115.299 359.61 114.23 357.148 114.044 355.86C112.988 348.546 112.953 345.997 114.517 338.756C120.352 311.734 139.293 289.969 146.793 263.536C149.053 255.569 148.73 246.819 145.983 239.015C145.201 236.794 142.003 234.45 138.991 234.613C128.933 235.157 125.552 246.276 121.896 253.921C100.944 297.727 101.166 297.72 81.122 342.029C77.9137 349.121 77.615 364.076 68.0197 363.085C66.2604 362.904 66.2923 362.862 64.6281 362.264C50.7271 357.259 52.3493 335.271 53.7711 323.851C54.2614 319.911 54.8056 315.975 55.4847 312.063C57.4964 300.475 59.9929 292.273 62.0181 280.687C62.711 276.723 63.3268 271.438 61.4955 267.608C59.9426 264.36 54.9653 257.299 46.218 261.465C31.5027 268.792 30.9289 288.986 31.133 303.251C31.2036 308.195 31.5203 313.137 31.421 318.08C31.1297 332.6 27.2719 375.848 23.6819 381.304C16.0295 392.935 1.10972 384.635 0.189239 361.12C-0.328706 347.9 0.017052 274.203 3.78992 250.562C11.7322 200.794 18.5181 144.966 50.7396 103.825C65.7092 84.7113 79.3988 68.487 99.3036 55.2047C125.099 37.9915 151.189 19.8178 180.734 9.55813C200.924 2.54695 229.471 1.46813 250.819 0.294219C318.334 -3.41818 384.542 28.3883 432.907 73.7934C441.208 81.5866 447.711 89.7218 454.278 98.9871C495.643 157.352 492.759 214.531 490.995 281.799C490.625 295.912 492.537 308.443 493.405 321.621Z" fill="#2046CC"/>
</svg>
